<svg width="22" height="20" viewBox="0 0 22 20" fill="none" xmlns="http://www.w3.org/2000/svg">
<path d="M15.2715 7.83062H13.0897C12.8968 7.83062 12.7118 7.73895 12.5754 7.57578C12.439 7.41261 12.3624 7.1913 12.3624 6.96055C12.3624 6.72979 12.439 6.50849 12.5754 6.34532C12.7118 6.18215 12.8968 6.09048 13.0897 6.09048H15.2715C15.4644 6.09048 15.6494 6.18215 15.7858 6.34532C15.9222 6.50849 15.9988 6.72979 15.9988 6.96055C15.9988 7.1913 15.9222 7.41261 15.7858 7.57578C15.6494 7.73895 15.4644 7.83062 15.2715 7.83062ZM8.72606 6.09048H7.99879V5.22041C7.99879 4.98965 7.92217 4.76835 7.78578 4.60518C7.64939 4.44201 7.4644 4.35034 7.27152 4.35034C7.07863 4.35034 6.89365 4.44201 6.75726 4.60518C6.62087 4.76835 6.54424 4.98965 6.54424 5.22041V6.09048H5.81697C5.62409 6.09048 5.4391 6.18215 5.30271 6.34532C5.16632 6.50849 5.0897 6.72979 5.0897 6.96055C5.0897 7.1913 5.16632 7.41261 5.30271 7.57578C5.4391 7.73895 5.62409 7.83062 5.81697 7.83062H6.54424V8.70068C6.54424 8.93144 6.62087 9.15275 6.75726 9.31592C6.89365 9.47908 7.07863 9.57075 7.27152 9.57075C7.4644 9.57075 7.64939 9.47908 7.78578 9.31592C7.92217 9.15275 7.99879 8.93144 7.99879 8.70068V7.83062H8.72606C8.91895 7.83062 9.10393 7.73895 9.24032 7.57578C9.37671 7.41261 9.45333 7.1913 9.45333 6.96055C9.45333 6.72979 9.37671 6.50849 9.24032 6.34532C9.10393 6.18215 8.91895 6.09048 8.72606 6.09048ZM21.2242 17.4721C20.9501 17.9403 20.5937 18.3311 20.1799 18.6169C19.766 18.9028 19.3049 19.0767 18.8289 19.1266C18.3529 19.1764 17.8735 19.101 17.4245 18.9055C16.9755 18.7101 16.5676 18.3993 16.2297 17.9952C16.2188 17.9821 16.2079 17.9691 16.1979 17.9549L12.5879 13.051H9.22424L5.61788 17.9549L5.58606 17.9952C4.9717 18.7286 4.13942 19.1408 3.27152 19.1415C2.79373 19.1413 2.32178 19.0159 1.88882 18.7742C1.45585 18.5325 1.07238 18.1803 0.765323 17.7424C0.458271 17.3045 0.235091 16.7914 0.111461 16.2393C-0.0121687 15.6872 -0.0332497 15.1094 0.0496988 14.5465C0.049261 14.5414 0.049261 14.5363 0.0496988 14.5312L1.53788 5.38572C1.75936 3.87732 2.41812 2.51055 3.39839 1.52557C4.37866 0.540596 5.61773 0.000434431 6.89788 0H14.9079C16.1842 0.00243587 17.4194 0.539508 18.3992 1.51797C19.379 2.49643 20.0415 3.85449 20.2715 5.35636C20.2715 5.36288 20.2715 5.36941 20.2715 5.37594L21.7597 14.5301C21.7601 14.5352 21.7601 14.5403 21.7597 14.5454C21.8367 15.0513 21.8291 15.5705 21.7371 16.0729C21.6452 16.5753 21.4709 17.0509 21.2242 17.4721ZM14.9079 11.3109C15.9687 11.3109 16.9862 10.8067 17.7363 9.90928C18.4865 9.01185 18.9079 7.79467 18.9079 6.52551C18.9079 5.25635 18.4865 4.03917 17.7363 3.14174C16.9862 2.24431 15.9687 1.74014 14.9079 1.74014H6.89788C5.95875 1.74114 5.04999 2.13834 4.33149 2.86184C3.61299 3.58535 3.13078 4.58881 2.9697 5.69569V5.70982L1.48061 14.8553C1.41479 15.3087 1.47086 15.7754 1.64077 16.1883C1.81068 16.6012 2.08566 16.9389 2.42617 17.153C2.76668 17.3671 3.15516 17.4464 3.53576 17.3797C3.91635 17.3129 4.26944 17.1035 4.54424 16.7814L8.35515 11.6056C8.42339 11.513 8.50732 11.4388 8.60136 11.388C8.69541 11.3372 8.79741 11.3109 8.90061 11.3109H14.9079ZM20.3352 14.8553L19.5406 9.96119C19.0519 10.9052 18.37 11.6844 17.5593 12.2251C16.7486 12.7658 15.836 13.0501 14.9079 13.051H14.5261L17.2715 16.7825C17.4785 17.0234 17.7303 17.2021 18.0062 17.304C18.2821 17.4059 18.5743 17.4281 18.8588 17.3687C19.3327 17.2687 19.7541 16.9479 20.0307 16.4768C20.3072 16.0057 20.4164 15.4226 20.3342 14.8553H20.3352Z" fill="white"/>
</svg>
