<svg width="155" height="62" viewBox="0 0 155 62" fill="none" xmlns="http://www.w3.org/2000/svg">
<g clip-path="url(#clip0_7_25)">
<path d="M112.761 17.8525C109.458 14.3852 105.319 12.6292 100.455 12.6292C97.63 12.6292 95.1786 13.1897 93.1703 14.2959C92.7027 14.5538 91.7231 15.2383 91.3047 15.5459V0.803584C91.3047 0.530762 91.2851 0.262901 91.2408 0H80.9678V40.1395C80.9678 41.9104 79.5354 43.3539 77.7732 43.3489C75.8535 43.344 74.0322 44.2963 73.2053 46.0374C71.3544 49.9363 74.1257 53.7657 77.783 53.7657C83.4634 53.7657 88.3366 50.2141 90.335 45.1991L91.8462 46.2954C92.2498 46.598 92.6928 46.8807 93.1703 47.1436C95.1786 48.2498 97.63 48.8103 100.455 48.8103C105.319 48.8103 109.463 47.0543 112.761 43.587C116.049 40.1395 117.713 35.8091 117.713 30.7197C117.713 25.6304 116.049 21.3049 112.761 17.8525ZM100.254 39.0086C95.6167 39.0086 91.8462 35.2089 91.8462 30.5362C91.8462 25.8635 95.6167 22.0638 100.254 22.0638C104.89 22.0638 108.661 25.8635 108.661 30.5362C108.661 35.2089 104.89 39.0086 100.254 39.0086Z" fill="white"/>
<path d="M153.312 39.0284C152.805 39.1028 152.347 39.1375 151.958 39.1375C151.791 39.1375 151.49 39.1177 151.407 38.9887C151.357 38.9143 151.116 38.4679 151.116 36.9649V13.3236H140.646V33.1156C140.646 34.9212 140.144 36.33 139.111 37.4212C138.097 38.4927 136.827 39.0135 135.232 39.0135C133.637 39.0135 132.431 38.5572 131.609 37.6246C130.743 36.6325 130.319 35.2635 130.319 33.4331V13.3236H119.849V34.5045C119.849 38.8349 121.06 42.3221 123.448 44.8668C125.855 47.4363 129.192 48.7409 133.351 48.7409C137.511 48.7409 140.494 47.6198 142.65 45.4075C143.093 46.0226 143.634 46.5881 144.279 47.099L144.333 47.1387C145.751 48.1605 147.602 48.6764 149.827 48.6764C151.658 48.6764 153.046 48.478 154.07 48.0662L155 47.6942V38.7804L153.312 39.0234V39.0284Z" fill="white"/>
<path d="M25.867 15.1441C25.4633 14.8415 25.0203 14.5588 24.5429 14.2959C22.5345 13.1897 20.0832 12.6292 17.2578 12.6292C12.4388 12.6292 8.30893 14.3852 4.98634 17.8475C1.67852 21.2999 0 25.5857 0 30.5908C0 35.5958 1.66868 39.8618 4.96173 43.2447C8.26463 46.6426 12.3994 48.3639 17.2578 48.3639C19.9798 48.3639 22.3672 47.8678 24.3558 46.8857C24.917 46.6079 25.4387 46.3053 25.9211 45.9829C25.6307 48.1952 24.8727 49.7627 23.6519 50.6605C22.2047 51.727 20.162 52.2677 17.5728 52.2677C14.1272 52.2677 10.7553 51.1814 7.55089 49.0434L6.31046 48.2151L2.24952 57.114C6.783 60.3531 12.2124 61.995 18.385 61.995C23.1252 61.995 27.1812 60.7004 30.4448 58.1408C32.8124 56.2707 34.4171 53.9245 35.2096 51.1665C35.9529 48.5821 36.3319 45.2636 36.3319 41.3151V13.3236H25.862V15.1441H25.867ZM24.09 36.3796C22.505 37.9421 20.6 38.701 18.2619 38.701C15.9238 38.701 14.1468 37.947 12.6455 36.4044C11.1393 34.8468 10.4059 32.947 10.4059 30.5957C10.4059 28.2445 11.1393 26.3447 12.6455 24.7871C14.1419 23.2395 15.978 22.4904 18.2619 22.4904C20.5459 22.4904 22.4952 23.2593 24.0802 24.8367C25.6602 26.4141 26.4281 28.2991 26.4281 30.5957C26.4281 32.8924 25.6602 34.8269 24.0851 36.3796H24.09Z" fill="white"/>
<path d="M77.7877 43.349C76.0305 43.349 74.603 41.9155 74.603 40.1396V13.3088H64.266L64.394 15.5757L63.9018 15.2236C63.4834 14.9061 63.0256 14.6085 62.5284 14.3307C60.5201 13.1997 58.0836 12.6293 55.2926 12.6293C50.4293 12.6293 46.2847 14.3853 42.9867 17.8526C39.6986 21.3 38.0348 25.6305 38.0348 30.7198C38.0348 35.8092 39.6986 40.1446 42.9867 43.6119C46.2896 47.0991 50.4293 48.8699 55.2975 48.8699C59.5307 48.8699 62.9075 47.7439 65.3736 45.5266C67.3917 50.234 71.9695 53.5774 77.3349 53.7609C80.2046 53.8551 82.8331 51.6775 82.9562 48.7906C83.0842 45.8094 80.7264 43.354 77.7976 43.354L77.7877 43.349ZM62.2282 32.957H58.6004V36.6128C58.6004 37.9422 57.5273 39.0235 56.2081 39.0235C54.889 39.0235 53.8159 37.9422 53.8159 36.6128V32.957H50.1881C48.8689 32.957 47.7958 31.8756 47.7958 30.5462C47.7958 29.2168 48.8689 28.1355 50.1881 28.1355H53.8159V24.4797C53.8159 23.1503 54.889 22.0689 56.2081 22.0689C57.5273 22.0689 58.6004 23.1503 58.6004 24.4797V28.1355H62.2282C63.5474 28.1355 64.6204 29.2168 64.6204 30.5462C64.6204 31.8756 63.5474 32.957 62.2282 32.957Z" fill="white"/>
</g>
<defs>
<clipPath id="clip0_7_25">
<rect width="155" height="62" fill="white"/>
</clipPath>
</defs>
</svg>
