<svg width="83" height="33" viewBox="0 0 83 33" fill="none" xmlns="http://www.w3.org/2000/svg">
<g clip-path="url(#clip0_12_705)">
<path d="M60.3819 9.50212C58.6132 7.65661 56.3965 6.72198 53.7923 6.72198C52.2793 6.72198 50.9666 7.02032 49.8912 7.60909C49.6408 7.74638 49.1163 8.11073 48.8922 8.27442V0.427714C48.8922 0.282503 48.8817 0.139931 48.858 0H43.357V21.3646C43.357 22.3071 42.5899 23.0754 41.6463 23.0728C40.6183 23.0702 39.6431 23.5771 39.2003 24.5038C38.2092 26.579 39.6932 28.6173 41.6516 28.6173C44.6933 28.6173 47.3028 26.7269 48.373 24.0576L49.1822 24.6411C49.3983 24.8021 49.6355 24.9526 49.8912 25.0926C50.9666 25.6813 52.2793 25.9797 53.7923 25.9797C56.3965 25.9797 58.6159 25.045 60.3819 23.1995C62.1426 21.3646 63.0335 19.0597 63.0335 16.3508C63.0335 13.642 62.1426 11.3397 60.3819 9.50212ZM53.6842 20.7626C51.2012 20.7626 49.1822 18.7402 49.1822 16.2531C49.1822 13.7661 51.2012 11.7437 53.6842 11.7437C56.1672 11.7437 58.1862 13.7661 58.1862 16.2531C58.1862 18.7402 56.1672 20.7626 53.6842 20.7626Z" fill="#FFC73B"/>
<path d="M82.0959 20.7732C81.8244 20.8128 81.5793 20.8313 81.371 20.8313C81.2814 20.8313 81.1206 20.8207 81.0758 20.7521C81.0494 20.7125 80.9203 20.4748 80.9203 19.6749V7.09161H75.3139V17.6261C75.3139 18.5871 75.045 19.3369 74.4915 19.9178C73.9485 20.488 73.2684 20.7653 72.4144 20.7653C71.5604 20.7653 70.9146 20.5224 70.4745 20.026C70.0105 19.498 69.7839 18.7693 69.7839 17.795V7.09161H64.1774V18.3653C64.1774 20.6702 64.8258 22.5263 66.1042 23.8807C67.3932 25.2483 69.1803 25.9427 71.4075 25.9427C73.6348 25.9427 75.2321 25.346 76.3866 24.1685C76.6239 24.4959 76.9138 24.7969 77.2591 25.0688L77.2881 25.0899C78.0472 25.6338 79.0383 25.9084 80.2297 25.9084C81.2102 25.9084 81.9535 25.8028 82.5018 25.5837L83 25.3856V20.6412L82.0959 20.7705V20.7732Z" fill="#9F76F5"/>
<path d="M13.8513 8.06057C13.6352 7.89952 13.398 7.74903 13.1423 7.6091C12.0669 7.02033 10.7542 6.72198 9.24126 6.72198C6.66077 6.72198 4.4493 7.65662 2.67011 9.49949C0.898822 11.3371 0 13.6182 0 16.2822C0 18.9462 0.89355 21.2167 2.65693 23.0174C4.42558 24.8259 6.63968 25.7421 9.24126 25.7421C10.6989 25.7421 11.9773 25.478 13.0421 24.9553C13.3426 24.8074 13.622 24.6464 13.8803 24.4748C13.7248 25.6523 13.3189 26.4866 12.6652 26.9645C11.8903 27.5321 10.7964 27.8199 9.40995 27.8199C7.56486 27.8199 5.75931 27.2417 4.04338 26.1038L3.37915 25.6629L1.20458 30.3994C3.63219 32.1235 6.53952 32.9974 9.84486 32.9974C12.3832 32.9974 14.5551 32.3083 16.3027 30.9459C17.5705 29.9506 18.4298 28.7017 18.8542 27.2338C19.2522 25.8582 19.4551 24.0919 19.4551 21.9903V7.09161H13.8487V8.06057H13.8513ZM12.8998 19.3633C12.0511 20.195 11.031 20.5989 9.77897 20.5989C8.52694 20.5989 7.57541 20.1976 6.77148 19.3765C5.96491 18.5475 5.57217 17.5363 5.57217 16.2848C5.57217 15.0334 5.96491 14.0222 6.77148 13.1931C7.57277 12.3694 8.55594 11.9707 9.77897 11.9707C11.002 11.9707 12.0458 12.38 12.8945 13.2195C13.7406 14.0591 14.1518 15.0624 14.1518 16.2848C14.1518 17.5072 13.7406 18.5369 12.8972 19.3633H12.8998Z" fill="#7B97FF"/>
<path d="M41.6541 23.0729C40.7131 23.0729 39.9487 22.3099 39.9487 21.3647V7.08376H34.4134L34.4819 8.29033L34.2184 8.10288C33.9943 7.9339 33.7492 7.77549 33.4829 7.62764C32.4075 7.02567 31.1028 6.72205 29.6083 6.72205C27.0041 6.72205 24.7847 7.65668 23.0187 9.50219C21.2579 11.3371 20.367 13.642 20.367 16.3509C20.367 19.0598 21.2579 21.3673 23.0187 23.2128C24.7873 25.0689 27.0041 26.0114 29.6109 26.0114C31.8777 26.0114 33.6859 25.4121 35.0065 24.2319C36.0872 26.7375 38.5385 28.517 41.4116 28.6147C42.9483 28.6648 44.3558 27.5058 44.4217 25.9692C44.4902 24.3824 43.2277 23.0755 41.6593 23.0755L41.6541 23.0729ZM33.3222 17.5416H31.3795V19.4875C31.3795 20.195 30.8049 20.7706 30.0985 20.7706C29.3921 20.7706 28.8175 20.195 28.8175 19.4875V17.5416H26.8749C26.1685 17.5416 25.5939 16.9661 25.5939 16.2585C25.5939 15.5509 26.1685 14.9753 26.8749 14.9753H28.8175V13.0295C28.8175 12.3219 29.3921 11.7464 30.0985 11.7464C30.8049 11.7464 31.3795 12.3219 31.3795 13.0295V14.9753H33.3222C34.0286 14.9753 34.6032 15.5509 34.6032 16.2585C34.6032 16.9661 34.0286 17.5416 33.3222 17.5416Z" fill="#FF6A65"/>
</g>
<defs>
<clipPath id="clip0_12_705">
<rect width="83" height="33" fill="white"/>
</clipPath>
</defs>
</svg>
